<svg version="1.1" xmlns="http://www.w3.org/2000/svg" xmlns:xlink="http://www.w3.org/1999/xlink" width="1347" height="861.6666564941406"><style xmlns="http://www.w3.org/1999/xhtml"></style><defs/><g transform="translate(0,0)"><g><rect fill="#FFFFFF" stroke="none" x="0" y="0" width="1347" height="861.6666564941406"/></g><g transform="translate(0,0) matrix(1,0,0,1,377,227.66665649414062)"><g transform="translate(4,4) scale(1.0071428571428571,1.0344827586206897)"><g><g transform="translate(0,0) scale(1.4,0.29)"><g><path fill="#000000" stroke="none" d="M 0 0 L 100 0 Q 100 0 100 0 L 100 100 Q 100 100 100 100 L 0 100 Q 0 100 0 100 L 0 0 Q 0 0 0 0 Z" opacity="0.294117647"/><g transform="scale(0.7142857142857143,3.4482758620689657)"><path fill="none" stroke="none" d="M 0 0 L 140 0 Q 140 0 140 0 L 140 28.999999999999996 Q 140 28.999999999999996 140 28.999999999999996 L 0 28.999999999999996 Q 0 28.999999999999996 0 28.999999999999996 L 0 0 Q 0 0 0 0 Z"/><path fill="none" stroke="rgb(0,0,0)" d="M 0 0 M 0 0 L 140 0 Q 140 0 140 0 L 140 28.999999999999996 Q 140 28.999999999999996 140 28.999999999999996 L 0 28.999999999999996 Q 0 28.999999999999996 0 28.999999999999996 L 0 0 Q 0 0 0 0 Z" stroke-opacity="0" stroke-miterlimit="10" stroke-width="2" opacity="0.294117647"/></g></g></g></g></g><g><g transform="translate(0,0) scale(1.4,0.29)"><g><path fill="#FFFFFF" stroke="none" d="M 0 0 L 100 0 Q 100 0 100 0 L 100 100 Q 100 100 100 100 L 0 100 Q 0 100 0 100 L 0 0 Q 0 0 0 0 Z"/><g transform="scale(0.7142857142857143,3.4482758620689657)"><path fill="none" stroke="none" d="M 0 0 L 140 0 Q 140 0 140 0 L 140 28.999999999999996 Q 140 28.999999999999996 140 28.999999999999996 L 0 28.999999999999996 Q 0 28.999999999999996 0 28.999999999999996 L 0 0 Q 0 0 0 0 Z"/><path fill="none" stroke="#000000" d="M 0 0 M 0 0 L 140 0 Q 140 0 140 0 L 140 28.999999999999996 Q 140 28.999999999999996 140 28.999999999999996 L 0 28.999999999999996 Q 0 28.999999999999996 0 28.999999999999996 L 0 0 Q 0 0 0 0 Z" stroke-miterlimit="10" stroke-width="2"/></g></g></g></g></g><g transform="matrix(1,0,0,1,385,236)"><g><g><rect fill="rgb(0,0,0)" stroke="none" x="0" y="0" width="125" height="29" fill-opacity="0"/></g></g><g><g><rect fill="rgb(0,0,0)" stroke="none" x="0" y="0" width="125" height="13" fill-opacity="0"/></g></g><g><g><rect fill="rgb(0,0,0)" stroke="none" x="35.1630859375" y="0" width="56" height="13" fill-opacity="0"/></g><text fill="rgb(0, 0, 0)" stroke="none" font-family="Arial" font-size="12px" font-style="normal" font-weight="bold" text-decoration="" line-height="14px" x="35.1630859375" y="12">Company</text></g></g><g transform="translate(0,0) matrix(1,0,0,1,377,256.6666564941406)"><g transform="translate(4,4) scale(1.0071428571428571,1.0344827586206897)"><g><g transform="translate(0,0) scale(1.4,0.29)"><g><path fill="#000000" stroke="none" d="M 0 0 L 100 0 Q 100 0 100 0 L 100 100 Q 100 100 100 100 L 0 100 Q 0 100 0 100 L 0 0 Q 0 0 0 0 Z" opacity="0.294117647"/><g transform="scale(0.7142857142857143,3.4482758620689657)"><path fill="none" stroke="none" d="M 0 0 L 140 0 Q 140 0 140 0 L 140 28.999999999999996 Q 140 28.999999999999996 140 28.999999999999996 L 0 28.999999999999996 Q 0 28.999999999999996 0 28.999999999999996 L 0 0 Q 0 0 0 0 Z"/><path fill="none" stroke="rgb(0,0,0)" d="M 0 0 M 0 0 L 140 0 Q 140 0 140 0 L 140 28.999999999999996 Q 140 28.999999999999996 140 28.999999999999996 L 0 28.999999999999996 Q 0 28.999999999999996 0 28.999999999999996 L 0 0 Q 0 0 0 0 Z" stroke-opacity="0" stroke-miterlimit="10" stroke-width="2" opacity="0.294117647"/></g></g></g></g></g><g><g transform="translate(0,0) scale(1.4,0.29)"><g><path fill="#FFFFFF" stroke="none" d="M 0 0 L 100 0 Q 100 0 100 0 L 100 100 Q 100 100 100 100 L 0 100 Q 0 100 0 100 L 0 0 Q 0 0 0 0 Z"/><g transform="scale(0.7142857142857143,3.4482758620689657)"><path fill="none" stroke="none" d="M 0 0 L 140 0 Q 140 0 140 0 L 140 28.999999999999996 Q 140 28.999999999999996 140 28.999999999999996 L 0 28.999999999999996 Q 0 28.999999999999996 0 28.999999999999996 L 0 0 Q 0 0 0 0 Z"/><path fill="none" stroke="#000000" d="M 0 0 M 0 0 L 140 0 Q 140 0 140 0 L 140 28.999999999999996 Q 140 28.999999999999996 140 28.999999999999996 L 0 28.999999999999996 Q 0 28.999999999999996 0 28.999999999999996 L 0 0 Q 0 0 0 0 Z" stroke-miterlimit="10" stroke-width="2"/></g></g></g></g></g><g transform="matrix(1,0,0,1,385,265)"><g><g><rect fill="rgb(0,0,0)" stroke="none" x="0" y="0" width="125" height="29" fill-opacity="0"/></g></g><g><g><rect fill="rgb(0,0,0)" stroke="none" x="0" y="0" width="125" height="13" fill-opacity="0"/></g></g><g><g><rect fill="rgb(0,0,0)" stroke="none" x="0" y="0" width="45" height="13" fill-opacity="0"/></g><text fill="rgb(0, 0, 0)" stroke="none" font-family="Arial" font-size="12px" font-style="normal" font-weight="normal" text-decoration="" line-height="14px" x="0" y="12">Attribute</text></g></g><g transform="translate(0,0) matrix(1,0,0,1,377,285.6666564941406)"><g transform="translate(4,4) scale(1.0071428571428571,1.0238095238095237)"><g><g transform="translate(0,0) scale(1.4,0.42)"><g><path fill="#000000" stroke="none" d="M 0 0 L 100 0 Q 100 0 100 0 L 100 100 Q 100 100 100 100 L 0 100 Q 0 100 0 100 L 0 0 Q 0 0 0 0 Z" opacity="0.294117647"/><g transform="scale(0.7142857142857143,2.380952380952381)"><path fill="none" stroke="none" d="M 0 0 L 140 0 Q 140 0 140 0 L 140 42 Q 140 42 140 42 L 0 42 Q 0 42 0 42 L 0 0 Q 0 0 0 0 Z"/><path fill="none" stroke="rgb(0,0,0)" d="M 0 0 M 0 0 L 140 0 Q 140 0 140 0 L 140 42 Q 140 42 140 42 L 0 42 Q 0 42 0 42 L 0 0 Q 0 0 0 0 Z" stroke-opacity="0" stroke-miterlimit="10" stroke-width="2" opacity="0.294117647"/></g></g></g></g></g><g><g transform="translate(0,0) scale(1.4,0.42)"><g><path fill="#FFFFFF" stroke="none" d="M 0 0 L 100 0 Q 100 0 100 0 L 100 100 Q 100 100 100 100 L 0 100 Q 0 100 0 100 L 0 0 Q 0 0 0 0 Z"/><g transform="scale(0.7142857142857143,2.380952380952381)"><path fill="none" stroke="none" d="M 0 0 L 140 0 Q 140 0 140 0 L 140 42 Q 140 42 140 42 L 0 42 Q 0 42 0 42 L 0 0 Q 0 0 0 0 Z"/><path fill="none" stroke="#000000" d="M 0 0 M 0 0 L 140 0 Q 140 0 140 0 L 140 42 Q 140 42 140 42 L 0 42 Q 0 42 0 42 L 0 0 Q 0 0 0 0 Z" stroke-miterlimit="10" stroke-width="2"/></g></g></g></g></g><g transform="matrix(1,0,0,1,385,294)"><g><g><rect fill="rgb(0,0,0)" stroke="none" x="0" y="0" width="125" height="29" fill-opacity="0"/></g></g><g><g><rect fill="rgb(0,0,0)" stroke="none" x="0" y="0" width="125" height="13" fill-opacity="0"/></g></g><g><g><rect fill="rgb(0,0,0)" stroke="none" x="0" y="0" width="41" height="13" fill-opacity="0"/></g><text fill="rgb(0, 0, 0)" stroke="none" font-family="Arial" font-size="12px" font-style="normal" font-weight="normal" text-decoration="" line-height="14px" x="0" y="12">Method</text></g></g><g transform="translate(0,0) matrix(1,0,0,1,562,368.6666564941406)"><g transform="translate(4,4) scale(1.0071428571428571,1.0344827586206897)"><g><g transform="translate(0,0) scale(1.4,0.29)"><g><path fill="#000000" stroke="none" d="M 0 0 L 100 0 Q 100 0 100 0 L 100 100 Q 100 100 100 100 L 0 100 Q 0 100 0 100 L 0 0 Q 0 0 0 0 Z" opacity="0.294117647"/><g transform="scale(0.7142857142857143,3.4482758620689657)"><path fill="none" stroke="none" d="M 0 0 L 140 0 Q 140 0 140 0 L 140 28.999999999999996 Q 140 28.999999999999996 140 28.999999999999996 L 0 28.999999999999996 Q 0 28.999999999999996 0 28.999999999999996 L 0 0 Q 0 0 0 0 Z"/><path fill="none" stroke="rgb(0,0,0)" d="M 0 0 M 0 0 L 140 0 Q 140 0 140 0 L 140 28.999999999999996 Q 140 28.999999999999996 140 28.999999999999996 L 0 28.999999999999996 Q 0 28.999999999999996 0 28.999999999999996 L 0 0 Q 0 0 0 0 Z" stroke-opacity="0" stroke-miterlimit="10" stroke-width="2" opacity="0.294117647"/></g></g></g></g></g><g><g transform="translate(0,0) scale(1.4,0.29)"><g><path fill="#FFFFFF" stroke="none" d="M 0 0 L 100 0 Q 100 0 100 0 L 100 100 Q 100 100 100 100 L 0 100 Q 0 100 0 100 L 0 0 Q 0 0 0 0 Z"/><g transform="scale(0.7142857142857143,3.4482758620689657)"><path fill="none" stroke="none" d="M 0 0 L 140 0 Q 140 0 140 0 L 140 28.999999999999996 Q 140 28.999999999999996 140 28.999999999999996 L 0 28.999999999999996 Q 0 28.999999999999996 0 28.999999999999996 L 0 0 Q 0 0 0 0 Z"/><path fill="none" stroke="#000000" d="M 0 0 M 0 0 L 140 0 Q 140 0 140 0 L 140 28.999999999999996 Q 140 28.999999999999996 140 28.999999999999996 L 0 28.999999999999996 Q 0 28.999999999999996 0 28.999999999999996 L 0 0 Q 0 0 0 0 Z" stroke-miterlimit="10" stroke-width="2"/></g></g></g></g></g><g transform="translate(0,0) matrix(1,0,0,1,562,397.6666564941406)"><g transform="translate(4,4) scale(1.0071428571428571,1.0344827586206897)"><g><g transform="translate(0,0) scale(1.4,0.29)"><g><path fill="#000000" stroke="none" d="M 0 0 L 100 0 Q 100 0 100 0 L 100 100 Q 100 100 100 100 L 0 100 Q 0 100 0 100 L 0 0 Q 0 0 0 0 Z" opacity="0.294117647"/><g transform="scale(0.7142857142857143,3.4482758620689657)"><path fill="none" stroke="none" d="M 0 0 L 140 0 Q 140 0 140 0 L 140 28.999999999999996 Q 140 28.999999999999996 140 28.999999999999996 L 0 28.999999999999996 Q 0 28.999999999999996 0 28.999999999999996 L 0 0 Q 0 0 0 0 Z"/><path fill="none" stroke="rgb(0,0,0)" d="M 0 0 M 0 0 L 140 0 Q 140 0 140 0 L 140 28.999999999999996 Q 140 28.999999999999996 140 28.999999999999996 L 0 28.999999999999996 Q 0 28.999999999999996 0 28.999999999999996 L 0 0 Q 0 0 0 0 Z" stroke-opacity="0" stroke-miterlimit="10" stroke-width="2" opacity="0.294117647"/></g></g></g></g></g><g><g transform="translate(0,0) scale(1.4,0.29)"><g><path fill="#FFFFFF" stroke="none" d="M 0 0 L 100 0 Q 100 0 100 0 L 100 100 Q 100 100 100 100 L 0 100 Q 0 100 0 100 L 0 0 Q 0 0 0 0 Z"/><g transform="scale(0.7142857142857143,3.4482758620689657)"><path fill="none" stroke="none" d="M 0 0 L 140 0 Q 140 0 140 0 L 140 28.999999999999996 Q 140 28.999999999999996 140 28.999999999999996 L 0 28.999999999999996 Q 0 28.999999999999996 0 28.999999999999996 L 0 0 Q 0 0 0 0 Z"/><path fill="none" stroke="#000000" d="M 0 0 M 0 0 L 140 0 Q 140 0 140 0 L 140 28.999999999999996 Q 140 28.999999999999996 140 28.999999999999996 L 0 28.999999999999996 Q 0 28.999999999999996 0 28.999999999999996 L 0 0 Q 0 0 0 0 Z" stroke-miterlimit="10" stroke-width="2"/></g></g></g></g></g><g transform="matrix(1,0,0,1,570,377)"><g><g><rect fill="rgb(0,0,0)" stroke="none" x="0" y="0" width="125" height="29" fill-opacity="0"/></g></g><g><g><rect fill="rgb(0,0,0)" stroke="none" x="0" y="0" width="125" height="13" fill-opacity="0"/></g></g><g><g><rect fill="rgb(0,0,0)" stroke="none" x="38.4912109375" y="0" width="49" height="13" fill-opacity="0"/></g><text fill="rgb(0, 0, 0)" stroke="none" font-family="Arial" font-size="12px" font-style="normal" font-weight="bold" text-decoration="" line-height="14px" x="38.4912109375" y="12">Address</text></g></g><g transform="matrix(1,0,0,1,570,406)"><g><g><rect fill="rgb(0,0,0)" stroke="none" x="0" y="0" width="125" height="29" fill-opacity="0"/></g></g><g><g><rect fill="rgb(0,0,0)" stroke="none" x="0" y="0" width="125" height="13" fill-opacity="0"/></g></g><g><g><rect fill="rgb(0,0,0)" stroke="none" x="0" y="0" width="45" height="13" fill-opacity="0"/></g><text fill="rgb(0, 0, 0)" stroke="none" font-family="Arial" font-size="12px" font-style="normal" font-weight="normal" text-decoration="" line-height="14px" x="0" y="12">Attribute</text></g></g><g transform="translate(0,0) matrix(1,0,0,1,562,426.6666564941406)"><g transform="translate(4,4) scale(1.0071428571428571,1.0238095238095237)"><g><g transform="translate(0,0) scale(1.4,0.42)"><g><path fill="#000000" stroke="none" d="M 0 0 L 100 0 Q 100 0 100 0 L 100 100 Q 100 100 100 100 L 0 100 Q 0 100 0 100 L 0 0 Q 0 0 0 0 Z" opacity="0.294117647"/><g transform="scale(0.7142857142857143,2.380952380952381)"><path fill="none" stroke="none" d="M 0 0 L 140 0 Q 140 0 140 0 L 140 42 Q 140 42 140 42 L 0 42 Q 0 42 0 42 L 0 0 Q 0 0 0 0 Z"/><path fill="none" stroke="rgb(0,0,0)" d="M 0 0 M 0 0 L 140 0 Q 140 0 140 0 L 140 42 Q 140 42 140 42 L 0 42 Q 0 42 0 42 L 0 0 Q 0 0 0 0 Z" stroke-opacity="0" stroke-miterlimit="10" stroke-width="2" opacity="0.294117647"/></g></g></g></g></g><g><g transform="translate(0,0) scale(1.4,0.42)"><g><path fill="#FFFFFF" stroke="none" d="M 0 0 L 100 0 Q 100 0 100 0 L 100 100 Q 100 100 100 100 L 0 100 Q 0 100 0 100 L 0 0 Q 0 0 0 0 Z"/><g transform="scale(0.7142857142857143,2.380952380952381)"><path fill="none" stroke="none" d="M 0 0 L 140 0 Q 140 0 140 0 L 140 42 Q 140 42 140 42 L 0 42 Q 0 42 0 42 L 0 0 Q 0 0 0 0 Z"/><path fill="none" stroke="#000000" d="M 0 0 M 0 0 L 140 0 Q 140 0 140 0 L 140 42 Q 140 42 140 42 L 0 42 Q 0 42 0 42 L 0 0 Q 0 0 0 0 Z" stroke-miterlimit="10" stroke-width="2"/></g></g></g></g></g><g transform="matrix(1,0,0,1,570,435)"><g><g><rect fill="rgb(0,0,0)" stroke="none" x="0" y="0" width="125" height="29" fill-opacity="0"/></g></g><g><g><rect fill="rgb(0,0,0)" stroke="none" x="0" y="0" width="125" height="13" fill-opacity="0"/></g></g><g><g><rect fill="rgb(0,0,0)" stroke="none" x="0" y="0" width="41" height="13" fill-opacity="0"/></g><text fill="rgb(0, 0, 0)" stroke="none" font-family="Arial" font-size="12px" font-style="normal" font-weight="normal" text-decoration="" line-height="14px" x="0" y="12">Method</text></g></g><g transform="translate(0,0) matrix(1,0,0,1,795,227.66665649414062)"><g transform="translate(4,4) scale(1.0071428571428571,1.0344827586206897)"><g><g transform="translate(0,0) scale(1.4,0.29)"><g><path fill="#000000" stroke="none" d="M 0 0 L 100 0 Q 100 0 100 0 L 100 100 Q 100 100 100 100 L 0 100 Q 0 100 0 100 L 0 0 Q 0 0 0 0 Z" opacity="0.294117647"/><g transform="scale(0.7142857142857143,3.4482758620689657)"><path fill="none" stroke="none" d="M 0 0 L 140 0 Q 140 0 140 0 L 140 28.999999999999996 Q 140 28.999999999999996 140 28.999999999999996 L 0 28.999999999999996 Q 0 28.999999999999996 0 28.999999999999996 L 0 0 Q 0 0 0 0 Z"/><path fill="none" stroke="rgb(0,0,0)" d="M 0 0 M 0 0 L 140 0 Q 140 0 140 0 L 140 28.999999999999996 Q 140 28.999999999999996 140 28.999999999999996 L 0 28.999999999999996 Q 0 28.999999999999996 0 28.999999999999996 L 0 0 Q 0 0 0 0 Z" stroke-opacity="0" stroke-miterlimit="10" stroke-width="2" opacity="0.294117647"/></g></g></g></g></g><g><g transform="translate(0,0) scale(1.4,0.29)"><g><path fill="#FFFFFF" stroke="none" d="M 0 0 L 100 0 Q 100 0 100 0 L 100 100 Q 100 100 100 100 L 0 100 Q 0 100 0 100 L 0 0 Q 0 0 0 0 Z"/><g transform="scale(0.7142857142857143,3.4482758620689657)"><path fill="none" stroke="none" d="M 0 0 L 140 0 Q 140 0 140 0 L 140 28.999999999999996 Q 140 28.999999999999996 140 28.999999999999996 L 0 28.999999999999996 Q 0 28.999999999999996 0 28.999999999999996 L 0 0 Q 0 0 0 0 Z"/><path fill="none" stroke="#000000" d="M 0 0 M 0 0 L 140 0 Q 140 0 140 0 L 140 28.999999999999996 Q 140 28.999999999999996 140 28.999999999999996 L 0 28.999999999999996 Q 0 28.999999999999996 0 28.999999999999996 L 0 0 Q 0 0 0 0 Z" stroke-miterlimit="10" stroke-width="2"/></g></g></g></g></g><g transform="matrix(1,0,0,1,803,236)"><g><g><rect fill="rgb(0,0,0)" stroke="none" x="0" y="0" width="125" height="29" fill-opacity="0"/></g></g><g><g><rect fill="rgb(0,0,0)" stroke="none" x="0" y="0" width="125" height="13" fill-opacity="0"/></g></g><g><g><rect fill="rgb(0,0,0)" stroke="none" x="48.830078125" y="0" width="29" height="13" fill-opacity="0"/></g><text fill="rgb(0, 0, 0)" stroke="none" font-family="Arial" font-size="12px" font-style="normal" font-weight="bold" text-decoration="" line-height="14px" x="48.830078125" y="12">Card</text></g></g><g transform="translate(0,0) matrix(1,0,0,1,795,256.6666564941406)"><g transform="translate(4,4) scale(1.0071428571428571,1.0344827586206897)"><g><g transform="translate(0,0) scale(1.4,0.29)"><g><path fill="#000000" stroke="none" d="M 0 0 L 100 0 Q 100 0 100 0 L 100 100 Q 100 100 100 100 L 0 100 Q 0 100 0 100 L 0 0 Q 0 0 0 0 Z" opacity="0.294117647"/><g transform="scale(0.7142857142857143,3.4482758620689657)"><path fill="none" stroke="none" d="M 0 0 L 140 0 Q 140 0 140 0 L 140 28.999999999999996 Q 140 28.999999999999996 140 28.999999999999996 L 0 28.999999999999996 Q 0 28.999999999999996 0 28.999999999999996 L 0 0 Q 0 0 0 0 Z"/><path fill="none" stroke="rgb(0,0,0)" d="M 0 0 M 0 0 L 140 0 Q 140 0 140 0 L 140 28.999999999999996 Q 140 28.999999999999996 140 28.999999999999996 L 0 28.999999999999996 Q 0 28.999999999999996 0 28.999999999999996 L 0 0 Q 0 0 0 0 Z" stroke-opacity="0" stroke-miterlimit="10" stroke-width="2" opacity="0.294117647"/></g></g></g></g></g><g><g transform="translate(0,0) scale(1.4,0.29)"><g><path fill="#FFFFFF" stroke="none" d="M 0 0 L 100 0 Q 100 0 100 0 L 100 100 Q 100 100 100 100 L 0 100 Q 0 100 0 100 L 0 0 Q 0 0 0 0 Z"/><g transform="scale(0.7142857142857143,3.4482758620689657)"><path fill="none" stroke="none" d="M 0 0 L 140 0 Q 140 0 140 0 L 140 28.999999999999996 Q 140 28.999999999999996 140 28.999999999999996 L 0 28.999999999999996 Q 0 28.999999999999996 0 28.999999999999996 L 0 0 Q 0 0 0 0 Z"/><path fill="none" stroke="#000000" d="M 0 0 M 0 0 L 140 0 Q 140 0 140 0 L 140 28.999999999999996 Q 140 28.999999999999996 140 28.999999999999996 L 0 28.999999999999996 Q 0 28.999999999999996 0 28.999999999999996 L 0 0 Q 0 0 0 0 Z" stroke-miterlimit="10" stroke-width="2"/></g></g></g></g></g><g transform="translate(0,0) matrix(1,0,0,1,795,285.6666564941406)"><g transform="translate(4,4) scale(1.0071428571428571,1.0238095238095237)"><g><g transform="translate(0,0) scale(1.4,0.42)"><g><path fill="#000000" stroke="none" d="M 0 0 L 100 0 Q 100 0 100 0 L 100 100 Q 100 100 100 100 L 0 100 Q 0 100 0 100 L 0 0 Q 0 0 0 0 Z" opacity="0.294117647"/><g transform="scale(0.7142857142857143,2.380952380952381)"><path fill="none" stroke="none" d="M 0 0 L 140 0 Q 140 0 140 0 L 140 42 Q 140 42 140 42 L 0 42 Q 0 42 0 42 L 0 0 Q 0 0 0 0 Z"/><path fill="none" stroke="rgb(0,0,0)" d="M 0 0 M 0 0 L 140 0 Q 140 0 140 0 L 140 42 Q 140 42 140 42 L 0 42 Q 0 42 0 42 L 0 0 Q 0 0 0 0 Z" stroke-opacity="0" stroke-miterlimit="10" stroke-width="2" opacity="0.294117647"/></g></g></g></g></g><g><g transform="translate(0,0) scale(1.4,0.42)"><g><path fill="#FFFFFF" stroke="none" d="M 0 0 L 100 0 Q 100 0 100 0 L 100 100 Q 100 100 100 100 L 0 100 Q 0 100 0 100 L 0 0 Q 0 0 0 0 Z"/><g transform="scale(0.7142857142857143,2.380952380952381)"><path fill="none" stroke="none" d="M 0 0 L 140 0 Q 140 0 140 0 L 140 42 Q 140 42 140 42 L 0 42 Q 0 42 0 42 L 0 0 Q 0 0 0 0 Z"/><path fill="none" stroke="#000000" d="M 0 0 M 0 0 L 140 0 Q 140 0 140 0 L 140 42 Q 140 42 140 42 L 0 42 Q 0 42 0 42 L 0 0 Q 0 0 0 0 Z" stroke-miterlimit="10" stroke-width="2"/></g></g></g></g></g><g transform="matrix(1,0,0,1,803,265)"><g><g><rect fill="rgb(0,0,0)" stroke="none" x="0" y="0" width="125" height="29" fill-opacity="0"/></g></g><g><g><rect fill="rgb(0,0,0)" stroke="none" x="0" y="0" width="125" height="13" fill-opacity="0"/></g></g><g><g><rect fill="rgb(0,0,0)" stroke="none" x="0" y="0" width="45" height="13" fill-opacity="0"/></g><text fill="rgb(0, 0, 0)" stroke="none" font-family="Arial" font-size="12px" font-style="normal" font-weight="normal" text-decoration="" line-height="14px" x="0" y="12">Attribute</text></g></g><g transform="matrix(1,0,0,1,803,294)"><g><g><rect fill="rgb(0,0,0)" stroke="none" x="0" y="0" width="125" height="29" fill-opacity="0"/></g></g><g><g><rect fill="rgb(0,0,0)" stroke="none" x="0" y="0" width="125" height="13" fill-opacity="0"/></g></g><g><g><rect fill="rgb(0,0,0)" stroke="none" x="0" y="0" width="41" height="13" fill-opacity="0"/></g><text fill="rgb(0, 0, 0)" stroke="none" font-family="Arial" font-size="12px" font-style="normal" font-weight="normal" text-decoration="" line-height="14px" x="0" y="12">Method</text></g></g><g transform="translate(0,0) matrix(1,0,0,1,340,503.6666564941406)"><g transform="translate(4,4) scale(1.0071428571428571,1.0344827586206897)"><g><g transform="translate(0,0) scale(1.4,0.29)"><g><path fill="#000000" stroke="none" d="M 0 0 L 100 0 Q 100 0 100 0 L 100 100 Q 100 100 100 100 L 0 100 Q 0 100 0 100 L 0 0 Q 0 0 0 0 Z" opacity="0.294117647"/><g transform="scale(0.7142857142857143,3.4482758620689657)"><path fill="none" stroke="none" d="M 0 0 L 140 0 Q 140 0 140 0 L 140 28.999999999999996 Q 140 28.999999999999996 140 28.999999999999996 L 0 28.999999999999996 Q 0 28.999999999999996 0 28.999999999999996 L 0 0 Q 0 0 0 0 Z"/><path fill="none" stroke="rgb(0,0,0)" d="M 0 0 M 0 0 L 140 0 Q 140 0 140 0 L 140 28.999999999999996 Q 140 28.999999999999996 140 28.999999999999996 L 0 28.999999999999996 Q 0 28.999999999999996 0 28.999999999999996 L 0 0 Q 0 0 0 0 Z" stroke-opacity="0" stroke-miterlimit="10" stroke-width="2" opacity="0.294117647"/></g></g></g></g></g><g><g transform="translate(0,0) scale(1.4,0.29)"><g><path fill="#FFFFFF" stroke="none" d="M 0 0 L 100 0 Q 100 0 100 0 L 100 100 Q 100 100 100 100 L 0 100 Q 0 100 0 100 L 0 0 Q 0 0 0 0 Z"/><g transform="scale(0.7142857142857143,3.4482758620689657)"><path fill="none" stroke="none" d="M 0 0 L 140 0 Q 140 0 140 0 L 140 28.999999999999996 Q 140 28.999999999999996 140 28.999999999999996 L 0 28.999999999999996 Q 0 28.999999999999996 0 28.999999999999996 L 0 0 Q 0 0 0 0 Z"/><path fill="none" stroke="#000000" d="M 0 0 M 0 0 L 140 0 Q 140 0 140 0 L 140 28.999999999999996 Q 140 28.999999999999996 140 28.999999999999996 L 0 28.999999999999996 Q 0 28.999999999999996 0 28.999999999999996 L 0 0 Q 0 0 0 0 Z" stroke-miterlimit="10" stroke-width="2"/></g></g></g></g></g><g transform="matrix(1,0,0,1,348,512)"><g><g><rect fill="rgb(0,0,0)" stroke="none" x="0" y="0" width="125" height="29" fill-opacity="0"/></g></g><g><g><rect fill="rgb(0,0,0)" stroke="none" x="0" y="0" width="125" height="13" fill-opacity="0"/></g></g><g><g><rect fill="rgb(0,0,0)" stroke="none" x="42.162109375" y="0" width="43" height="13" fill-opacity="0"/></g><text fill="rgb(0, 0, 0)" stroke="none" font-family="Arial" font-size="12px" font-style="normal" font-weight="bold" text-decoration="" line-height="14px" x="42.162109375" y="12">Vendor</text></g></g><g transform="translate(0,0) matrix(1,0,0,1,340,532.6666564941406)"><g transform="translate(4,4) scale(1.0071428571428571,1.0344827586206897)"><g><g transform="translate(0,0) scale(1.4,0.29)"><g><path fill="#000000" stroke="none" d="M 0 0 L 100 0 Q 100 0 100 0 L 100 100 Q 100 100 100 100 L 0 100 Q 0 100 0 100 L 0 0 Q 0 0 0 0 Z" opacity="0.294117647"/><g transform="scale(0.7142857142857143,3.4482758620689657)"><path fill="none" stroke="none" d="M 0 0 L 140 0 Q 140 0 140 0 L 140 28.999999999999996 Q 140 28.999999999999996 140 28.999999999999996 L 0 28.999999999999996 Q 0 28.999999999999996 0 28.999999999999996 L 0 0 Q 0 0 0 0 Z"/><path fill="none" stroke="rgb(0,0,0)" d="M 0 0 M 0 0 L 140 0 Q 140 0 140 0 L 140 28.999999999999996 Q 140 28.999999999999996 140 28.999999999999996 L 0 28.999999999999996 Q 0 28.999999999999996 0 28.999999999999996 L 0 0 Q 0 0 0 0 Z" stroke-opacity="0" stroke-miterlimit="10" stroke-width="2" opacity="0.294117647"/></g></g></g></g></g><g><g transform="translate(0,0) scale(1.4,0.29)"><g><path fill="#FFFFFF" stroke="none" d="M 0 0 L 100 0 Q 100 0 100 0 L 100 100 Q 100 100 100 100 L 0 100 Q 0 100 0 100 L 0 0 Q 0 0 0 0 Z"/><g transform="scale(0.7142857142857143,3.4482758620689657)"><path fill="none" stroke="none" d="M 0 0 L 140 0 Q 140 0 140 0 L 140 28.999999999999996 Q 140 28.999999999999996 140 28.999999999999996 L 0 28.999999999999996 Q 0 28.999999999999996 0 28.999999999999996 L 0 0 Q 0 0 0 0 Z"/><path fill="none" stroke="#000000" d="M 0 0 M 0 0 L 140 0 Q 140 0 140 0 L 140 28.999999999999996 Q 140 28.999999999999996 140 28.999999999999996 L 0 28.999999999999996 Q 0 28.999999999999996 0 28.999999999999996 L 0 0 Q 0 0 0 0 Z" stroke-miterlimit="10" stroke-width="2"/></g></g></g></g></g><g transform="translate(0,0) matrix(1,0,0,1,340,561.6666564941406)"><g transform="translate(4,4) scale(1.0071428571428571,1.0238095238095237)"><g><g transform="translate(0,0) scale(1.4,0.42)"><g><path fill="#000000" stroke="none" d="M 0 0 L 100 0 Q 100 0 100 0 L 100 100 Q 100 100 100 100 L 0 100 Q 0 100 0 100 L 0 0 Q 0 0 0 0 Z" opacity="0.294117647"/><g transform="scale(0.7142857142857143,2.380952380952381)"><path fill="none" stroke="none" d="M 0 0 L 140 0 Q 140 0 140 0 L 140 42 Q 140 42 140 42 L 0 42 Q 0 42 0 42 L 0 0 Q 0 0 0 0 Z"/><path fill="none" stroke="rgb(0,0,0)" d="M 0 0 M 0 0 L 140 0 Q 140 0 140 0 L 140 42 Q 140 42 140 42 L 0 42 Q 0 42 0 42 L 0 0 Q 0 0 0 0 Z" stroke-opacity="0" stroke-miterlimit="10" stroke-width="2" opacity="0.294117647"/></g></g></g></g></g><g><g transform="translate(0,0) scale(1.4,0.42)"><g><path fill="#FFFFFF" stroke="none" d="M 0 0 L 100 0 Q 100 0 100 0 L 100 100 Q 100 100 100 100 L 0 100 Q 0 100 0 100 L 0 0 Q 0 0 0 0 Z"/><g transform="scale(0.7142857142857143,2.380952380952381)"><path fill="none" stroke="none" d="M 0 0 L 140 0 Q 140 0 140 0 L 140 42 Q 140 42 140 42 L 0 42 Q 0 42 0 42 L 0 0 Q 0 0 0 0 Z"/><path fill="none" stroke="#000000" d="M 0 0 M 0 0 L 140 0 Q 140 0 140 0 L 140 42 Q 140 42 140 42 L 0 42 Q 0 42 0 42 L 0 0 Q 0 0 0 0 Z" stroke-miterlimit="10" stroke-width="2"/></g></g></g></g></g><g transform="matrix(1,0,0,1,348,541)"><g><g><rect fill="rgb(0,0,0)" stroke="none" x="0" y="0" width="125" height="29" fill-opacity="0"/></g></g><g><g><rect fill="rgb(0,0,0)" stroke="none" x="0" y="0" width="125" height="13" fill-opacity="0"/></g></g><g><g><rect fill="rgb(0,0,0)" stroke="none" x="0" y="0" width="45" height="13" fill-opacity="0"/></g><text fill="rgb(0, 0, 0)" stroke="none" font-family="Arial" font-size="12px" font-style="normal" font-weight="normal" text-decoration="" line-height="14px" x="0" y="12">Attribute</text></g></g><g transform="matrix(1,0,0,1,348,570)"><g><g><rect fill="rgb(0,0,0)" stroke="none" x="0" y="0" width="125" height="29" fill-opacity="0"/></g></g><g><g><rect fill="rgb(0,0,0)" stroke="none" x="0" y="0" width="125" height="13" fill-opacity="0"/></g></g><g><g><rect fill="rgb(0,0,0)" stroke="none" x="0" y="0" width="41" height="13" fill-opacity="0"/></g><text fill="rgb(0, 0, 0)" stroke="none" font-family="Arial" font-size="12px" font-style="normal" font-weight="normal" text-decoration="" line-height="14px" x="0" y="12">Method</text></g></g><g transform="matrix(1,0,0,1,513,310.6666564941406)"><g transform="translate(0,0)"><g transform="translate(-320,-292.6666564941406) translate(-193,-18) matrix(1,0,0,1,0,0)"><g><path fill="none" stroke="#000000" d="M 632 368.6666564941406 L 632 314.6666564941406 L 517 314.6666564941406" stroke-miterlimit="10"/></g></g></g></g><g transform="matrix(1,0,0,1,526,293)"><g><path fill="none" stroke="none" d="M 0 0 L 13 0 L 13 13 L 0 13 Z"/><g><rect fill="rgb(255, 255, 255)" stroke="none" x="0" y="0" width="13" height="13"/></g></g><g><path fill="none" stroke="none" d="M 0 0 L 13 0 L 13 13 L 0 13 Z"/><g><rect fill="rgb(0,0,0)" stroke="none" x="0" y="0" width="13" height="13" fill-opacity="0"/></g></g><g><path fill="none" stroke="none" d="M 3.1630859375 0 L 11.1630859375 0 L 11.1630859375 13 L 3.1630859375 13 Z"/><g><rect fill="rgb(0,0,0)" stroke="none" x="3.1630859375" y="0" width="8" height="13" fill-opacity="0"/></g><text fill="rgb(0, 0, 0)" stroke="none" font-family="Arial" font-size="12px" font-style="normal" font-weight="normal" text-decoration="" line-height="14px" x="3.1630859375" y="12">1</text></g></g><g transform="matrix(1,0,0,1,605,347)"><g><path fill="none" stroke="none" d="M 0 0 L 25 0 L 25 13 L 0 13 Z"/><g><rect fill="rgb(255, 255, 255)" stroke="none" x="0" y="0" width="25" height="13"/></g></g><g><path fill="none" stroke="none" d="M 0 0 L 25 0 L 25 13 L 0 13 Z"/><g><rect fill="rgb(0,0,0)" stroke="none" x="0" y="0" width="25" height="13" fill-opacity="0"/></g></g><g><path fill="none" stroke="none" d="M 3.494140625 0 L 23.494140625 0 L 23.494140625 13 L 3.494140625 13 Z"/><g><rect fill="rgb(0,0,0)" stroke="none" x="3.494140625" y="0" width="20" height="13" fill-opacity="0"/></g><text fill="rgb(0, 0, 0)" stroke="none" font-family="Arial" font-size="12px" font-style="normal" font-weight="normal" text-decoration="" line-height="14px" x="2.6666667461395264" y="12">1</text><text fill="rgb(0, 0, 0)" stroke="none" font-family="Arial" font-size="12px" font-style="normal" font-weight="normal" text-decoration="" line-height="14px" x="9.333333969116211" y="12">..*</text></g></g><g transform="matrix(1,0,0,1,402,323.6666564941406)"><g transform="translate(0,0)"><g transform="translate(-470,-514.6666564941406) translate(68,191) matrix(1,0,0,1,0,0)"><g><path fill="none" stroke="#000000" d="M 406 327.6666564941406 L 406 386.348472719915 L 406 445.03028894568934 L 406 503.7121051714637" stroke-miterlimit="10"/></g></g></g></g><g transform="matrix(1,0,0,1,379,482)"><g><path fill="none" stroke="none" d="M 0 0 L 25 0 L 25 13 L 0 13 Z"/><g><rect fill="rgb(255, 255, 255)" stroke="none" x="0" y="0" width="25" height="13"/></g></g><g><path fill="none" stroke="none" d="M 0 0 L 25 0 L 25 13 L 0 13 Z"/><g><rect fill="rgb(0,0,0)" stroke="none" x="0" y="0" width="25" height="13" fill-opacity="0"/></g></g><g><path fill="none" stroke="none" d="M 3.494140625 0 L 23.494140625 0 L 23.494140625 13 L 3.494140625 13 Z"/><g><rect fill="rgb(0,0,0)" stroke="none" x="3.494140625" y="0" width="20" height="13" fill-opacity="0"/></g><text fill="rgb(0, 0, 0)" stroke="none" font-family="Arial" font-size="12px" font-style="normal" font-weight="normal" text-decoration="" line-height="14px" x="2.6666667461395264" y="12">0</text><text fill="rgb(0, 0, 0)" stroke="none" font-family="Arial" font-size="12px" font-style="normal" font-weight="normal" text-decoration="" line-height="14px" x="9.333333969116211" y="12">..*</text></g></g><g transform="matrix(1,0,0,1,385,336)"><g><path fill="none" stroke="none" d="M 0 0 L 13 0 L 13 13 L 0 13 Z"/><g><rect fill="rgb(255, 255, 255)" stroke="none" x="0" y="0" width="13" height="13"/></g></g><g><path fill="none" stroke="none" d="M 0 0 L 13 0 L 13 13 L 0 13 Z"/><g><rect fill="rgb(0,0,0)" stroke="none" x="0" y="0" width="13" height="13" fill-opacity="0"/></g></g><g><path fill="none" stroke="none" d="M 3.1630859375 0 L 11.1630859375 0 L 11.1630859375 13 L 3.1630859375 13 Z"/><g><rect fill="rgb(0,0,0)" stroke="none" x="3.1630859375" y="0" width="8" height="13" fill-opacity="0"/></g><text fill="rgb(0, 0, 0)" stroke="none" font-family="Arial" font-size="12px" font-style="normal" font-weight="normal" text-decoration="" line-height="14px" x="3.1630859375" y="12">1</text></g></g><g transform="translate(0,0) matrix(1,0,0,1,795,741.6666564941406)"><g transform="translate(4,4) scale(1.0071428571428571,1.0344827586206897)"><g><g transform="translate(0,0) scale(1.4,0.29)"><g><path fill="#000000" stroke="none" d="M 0 0 L 100 0 Q 100 0 100 0 L 100 100 Q 100 100 100 100 L 0 100 Q 0 100 0 100 L 0 0 Q 0 0 0 0 Z" opacity="0.294117647"/><g transform="scale(0.7142857142857143,3.4482758620689657)"><path fill="none" stroke="none" d="M 0 0 L 140 0 Q 140 0 140 0 L 140 28.999999999999996 Q 140 28.999999999999996 140 28.999999999999996 L 0 28.999999999999996 Q 0 28.999999999999996 0 28.999999999999996 L 0 0 Q 0 0 0 0 Z"/><path fill="none" stroke="rgb(0,0,0)" d="M 0 0 M 0 0 L 140 0 Q 140 0 140 0 L 140 28.999999999999996 Q 140 28.999999999999996 140 28.999999999999996 L 0 28.999999999999996 Q 0 28.999999999999996 0 28.999999999999996 L 0 0 Q 0 0 0 0 Z" stroke-opacity="0" stroke-miterlimit="10" stroke-width="2" opacity="0.294117647"/></g></g></g></g></g><g><g transform="translate(0,0) scale(1.4,0.29)"><g><path fill="#FFFFFF" stroke="none" d="M 0 0 L 100 0 Q 100 0 100 0 L 100 100 Q 100 100 100 100 L 0 100 Q 0 100 0 100 L 0 0 Q 0 0 0 0 Z"/><g transform="scale(0.7142857142857143,3.4482758620689657)"><path fill="none" stroke="none" d="M 0 0 L 140 0 Q 140 0 140 0 L 140 28.999999999999996 Q 140 28.999999999999996 140 28.999999999999996 L 0 28.999999999999996 Q 0 28.999999999999996 0 28.999999999999996 L 0 0 Q 0 0 0 0 Z"/><path fill="none" stroke="#000000" d="M 0 0 M 0 0 L 140 0 Q 140 0 140 0 L 140 28.999999999999996 Q 140 28.999999999999996 140 28.999999999999996 L 0 28.999999999999996 Q 0 28.999999999999996 0 28.999999999999996 L 0 0 Q 0 0 0 0 Z" stroke-miterlimit="10" stroke-width="2"/></g></g></g></g></g><g transform="matrix(1,0,0,1,803,750)"><g><g><rect fill="rgb(0,0,0)" stroke="none" x="0" y="0" width="125" height="29" fill-opacity="0"/></g></g><g><g><rect fill="rgb(0,0,0)" stroke="none" x="0" y="0" width="125" height="13" fill-opacity="0"/></g></g><g><g><rect fill="rgb(0,0,0)" stroke="none" x="49.158203125" y="0" width="28" height="13" fill-opacity="0"/></g><text fill="rgb(0, 0, 0)" stroke="none" font-family="Arial" font-size="12px" font-style="normal" font-weight="bold" text-decoration="" line-height="14px" x="49.158203125" y="12">User</text></g></g><g transform="translate(0,0) matrix(1,0,0,1,795,770.6666564941406)"><g transform="translate(4,4) scale(1.0071428571428571,1.0344827586206897)"><g><g transform="translate(0,0) scale(1.4,0.29)"><g><path fill="#000000" stroke="none" d="M 0 0 L 100 0 Q 100 0 100 0 L 100 100 Q 100 100 100 100 L 0 100 Q 0 100 0 100 L 0 0 Q 0 0 0 0 Z" opacity="0.294117647"/><g transform="scale(0.7142857142857143,3.4482758620689657)"><path fill="none" stroke="none" d="M 0 0 L 140 0 Q 140 0 140 0 L 140 28.999999999999996 Q 140 28.999999999999996 140 28.999999999999996 L 0 28.999999999999996 Q 0 28.999999999999996 0 28.999999999999996 L 0 0 Q 0 0 0 0 Z"/><path fill="none" stroke="rgb(0,0,0)" d="M 0 0 M 0 0 L 140 0 Q 140 0 140 0 L 140 28.999999999999996 Q 140 28.999999999999996 140 28.999999999999996 L 0 28.999999999999996 Q 0 28.999999999999996 0 28.999999999999996 L 0 0 Q 0 0 0 0 Z" stroke-opacity="0" stroke-miterlimit="10" stroke-width="2" opacity="0.294117647"/></g></g></g></g></g><g><g transform="translate(0,0) scale(1.4,0.29)"><g><path fill="#FFFFFF" stroke="none" d="M 0 0 L 100 0 Q 100 0 100 0 L 100 100 Q 100 100 100 100 L 0 100 Q 0 100 0 100 L 0 0 Q 0 0 0 0 Z"/><g transform="scale(0.7142857142857143,3.4482758620689657)"><path fill="none" stroke="none" d="M 0 0 L 140 0 Q 140 0 140 0 L 140 28.999999999999996 Q 140 28.999999999999996 140 28.999999999999996 L 0 28.999999999999996 Q 0 28.999999999999996 0 28.999999999999996 L 0 0 Q 0 0 0 0 Z"/><path fill="none" stroke="#000000" d="M 0 0 M 0 0 L 140 0 Q 140 0 140 0 L 140 28.999999999999996 Q 140 28.999999999999996 140 28.999999999999996 L 0 28.999999999999996 Q 0 28.999999999999996 0 28.999999999999996 L 0 0 Q 0 0 0 0 Z" stroke-miterlimit="10" stroke-width="2"/></g></g></g></g></g><g transform="matrix(1,0,0,1,803,779)"><g><g><rect fill="rgb(0,0,0)" stroke="none" x="0" y="0" width="125" height="29" fill-opacity="0"/></g></g><g><g><rect fill="rgb(0,0,0)" stroke="none" x="0" y="0" width="125" height="13" fill-opacity="0"/></g></g><g><g><rect fill="rgb(0,0,0)" stroke="none" x="0" y="0" width="45" height="13" fill-opacity="0"/></g><text fill="rgb(0, 0, 0)" stroke="none" font-family="Arial" font-size="12px" font-style="normal" font-weight="normal" text-decoration="" line-height="14px" x="0" y="12">Attribute</text></g></g><g transform="translate(0,0) matrix(1,0,0,1,795,799.6666564941406)"><g transform="translate(4,4) scale(1.0071428571428571,1.0238095238095237)"><g><g transform="translate(0,0) scale(1.4,0.42)"><g><path fill="#000000" stroke="none" d="M 0 0 L 100 0 Q 100 0 100 0 L 100 100 Q 100 100 100 100 L 0 100 Q 0 100 0 100 L 0 0 Q 0 0 0 0 Z" opacity="0.294117647"/><g transform="scale(0.7142857142857143,2.380952380952381)"><path fill="none" stroke="none" d="M 0 0 L 140 0 Q 140 0 140 0 L 140 42 Q 140 42 140 42 L 0 42 Q 0 42 0 42 L 0 0 Q 0 0 0 0 Z"/><path fill="none" stroke="rgb(0,0,0)" d="M 0 0 M 0 0 L 140 0 Q 140 0 140 0 L 140 42 Q 140 42 140 42 L 0 42 Q 0 42 0 42 L 0 0 Q 0 0 0 0 Z" stroke-opacity="0" stroke-miterlimit="10" stroke-width="2" opacity="0.294117647"/></g></g></g></g></g><g><g transform="translate(0,0) scale(1.4,0.42)"><g><path fill="#FFFFFF" stroke="none" d="M 0 0 L 100 0 Q 100 0 100 0 L 100 100 Q 100 100 100 100 L 0 100 Q 0 100 0 100 L 0 0 Q 0 0 0 0 Z"/><g transform="scale(0.7142857142857143,2.380952380952381)"><path fill="none" stroke="none" d="M 0 0 L 140 0 Q 140 0 140 0 L 140 42 Q 140 42 140 42 L 0 42 Q 0 42 0 42 L 0 0 Q 0 0 0 0 Z"/><path fill="none" stroke="#000000" d="M 0 0 M 0 0 L 140 0 Q 140 0 140 0 L 140 42 Q 140 42 140 42 L 0 42 Q 0 42 0 42 L 0 0 Q 0 0 0 0 Z" stroke-miterlimit="10" stroke-width="2"/></g></g></g></g></g><g transform="matrix(1,0,0,1,803,808)"><g><g><rect fill="rgb(0,0,0)" stroke="none" x="0" y="0" width="125" height="29" fill-opacity="0"/></g></g><g><g><rect fill="rgb(0,0,0)" stroke="none" x="0" y="0" width="125" height="13" fill-opacity="0"/></g></g><g><g><rect fill="rgb(0,0,0)" stroke="none" x="0" y="0" width="41" height="13" fill-opacity="0"/></g><text fill="rgb(0, 0, 0)" stroke="none" font-family="Arial" font-size="12px" font-style="normal" font-weight="normal" text-decoration="" line-height="14px" x="0" y="12">Method</text></g></g><g transform="translate(0,0) matrix(1,0,0,1,795,503.6666564941406)"><g transform="translate(4,4) scale(1.0071428571428571,1.0344827586206897)"><g><g transform="translate(0,0) scale(1.4,0.29)"><g><path fill="#000000" stroke="none" d="M 0 0 L 100 0 Q 100 0 100 0 L 100 100 Q 100 100 100 100 L 0 100 Q 0 100 0 100 L 0 0 Q 0 0 0 0 Z" opacity="0.294117647"/><g transform="scale(0.7142857142857143,3.4482758620689657)"><path fill="none" stroke="none" d="M 0 0 L 140 0 Q 140 0 140 0 L 140 28.999999999999996 Q 140 28.999999999999996 140 28.999999999999996 L 0 28.999999999999996 Q 0 28.999999999999996 0 28.999999999999996 L 0 0 Q 0 0 0 0 Z"/><path fill="none" stroke="rgb(0,0,0)" d="M 0 0 M 0 0 L 140 0 Q 140 0 140 0 L 140 28.999999999999996 Q 140 28.999999999999996 140 28.999999999999996 L 0 28.999999999999996 Q 0 28.999999999999996 0 28.999999999999996 L 0 0 Q 0 0 0 0 Z" stroke-opacity="0" stroke-miterlimit="10" stroke-width="2" opacity="0.294117647"/></g></g></g></g></g><g><g transform="translate(0,0) scale(1.4,0.29)"><g><path fill="#FFFFFF" stroke="none" d="M 0 0 L 100 0 Q 100 0 100 0 L 100 100 Q 100 100 100 100 L 0 100 Q 0 100 0 100 L 0 0 Q 0 0 0 0 Z"/><g transform="scale(0.7142857142857143,3.4482758620689657)"><path fill="none" stroke="none" d="M 0 0 L 140 0 Q 140 0 140 0 L 140 28.999999999999996 Q 140 28.999999999999996 140 28.999999999999996 L 0 28.999999999999996 Q 0 28.999999999999996 0 28.999999999999996 L 0 0 Q 0 0 0 0 Z"/><path fill="none" stroke="#000000" d="M 0 0 M 0 0 L 140 0 Q 140 0 140 0 L 140 28.999999999999996 Q 140 28.999999999999996 140 28.999999999999996 L 0 28.999999999999996 Q 0 28.999999999999996 0 28.999999999999996 L 0 0 Q 0 0 0 0 Z" stroke-miterlimit="10" stroke-width="2"/></g></g></g></g></g><g transform="matrix(1,0,0,1,803,512)"><g><g><rect fill="rgb(0,0,0)" stroke="none" x="0" y="0" width="125" height="29" fill-opacity="0"/></g></g><g><g><rect fill="rgb(0,0,0)" stroke="none" x="0" y="0" width="125" height="13" fill-opacity="0"/></g></g><g><g><rect fill="rgb(0,0,0)" stroke="none" x="35.166015625" y="0" width="56" height="13" fill-opacity="0"/></g><text fill="rgb(0, 0, 0)" stroke="none" font-family="Arial" font-size="12px" font-style="normal" font-weight="bold" text-decoration="" line-height="14px" x="35.166015625" y="12">Stamping</text></g></g><g transform="translate(0,0) matrix(1,0,0,1,795,532.6666564941406)"><g transform="translate(4,4) scale(1.0071428571428571,1.0344827586206897)"><g><g transform="translate(0,0) scale(1.4,0.29)"><g><path fill="#000000" stroke="none" d="M 0 0 L 100 0 Q 100 0 100 0 L 100 100 Q 100 100 100 100 L 0 100 Q 0 100 0 100 L 0 0 Q 0 0 0 0 Z" opacity="0.294117647"/><g transform="scale(0.7142857142857143,3.4482758620689657)"><path fill="none" stroke="none" d="M 0 0 L 140 0 Q 140 0 140 0 L 140 28.999999999999996 Q 140 28.999999999999996 140 28.999999999999996 L 0 28.999999999999996 Q 0 28.999999999999996 0 28.999999999999996 L 0 0 Q 0 0 0 0 Z"/><path fill="none" stroke="rgb(0,0,0)" d="M 0 0 M 0 0 L 140 0 Q 140 0 140 0 L 140 28.999999999999996 Q 140 28.999999999999996 140 28.999999999999996 L 0 28.999999999999996 Q 0 28.999999999999996 0 28.999999999999996 L 0 0 Q 0 0 0 0 Z" stroke-opacity="0" stroke-miterlimit="10" stroke-width="2" opacity="0.294117647"/></g></g></g></g></g><g><g transform="translate(0,0) scale(1.4,0.29)"><g><path fill="#FFFFFF" stroke="none" d="M 0 0 L 100 0 Q 100 0 100 0 L 100 100 Q 100 100 100 100 L 0 100 Q 0 100 0 100 L 0 0 Q 0 0 0 0 Z"/><g transform="scale(0.7142857142857143,3.4482758620689657)"><path fill="none" stroke="none" d="M 0 0 L 140 0 Q 140 0 140 0 L 140 28.999999999999996 Q 140 28.999999999999996 140 28.999999999999996 L 0 28.999999999999996 Q 0 28.999999999999996 0 28.999999999999996 L 0 0 Q 0 0 0 0 Z"/><path fill="none" stroke="#000000" d="M 0 0 M 0 0 L 140 0 Q 140 0 140 0 L 140 28.999999999999996 Q 140 28.999999999999996 140 28.999999999999996 L 0 28.999999999999996 Q 0 28.999999999999996 0 28.999999999999996 L 0 0 Q 0 0 0 0 Z" stroke-miterlimit="10" stroke-width="2"/></g></g></g></g></g><g transform="matrix(1,0,0,1,803,541)"><g><g><rect fill="rgb(0,0,0)" stroke="none" x="0" y="0" width="125" height="29" fill-opacity="0"/></g></g><g><g><rect fill="rgb(0,0,0)" stroke="none" x="0" y="0" width="125" height="13" fill-opacity="0"/></g></g><g><g><rect fill="rgb(0,0,0)" stroke="none" x="0" y="0" width="45" height="13" fill-opacity="0"/></g><text fill="rgb(0, 0, 0)" stroke="none" font-family="Arial" font-size="12px" font-style="normal" font-weight="normal" text-decoration="" line-height="14px" x="0" y="12">Attribute</text></g></g><g transform="translate(0,0) matrix(1,0,0,1,795,561.6666564941406)"><g transform="translate(4,4) scale(1.0071428571428571,1.0238095238095237)"><g><g transform="translate(0,0) scale(1.4,0.42)"><g><path fill="#000000" stroke="none" d="M 0 0 L 100 0 Q 100 0 100 0 L 100 100 Q 100 100 100 100 L 0 100 Q 0 100 0 100 L 0 0 Q 0 0 0 0 Z" opacity="0.294117647"/><g transform="scale(0.7142857142857143,2.380952380952381)"><path fill="none" stroke="none" d="M 0 0 L 140 0 Q 140 0 140 0 L 140 42 Q 140 42 140 42 L 0 42 Q 0 42 0 42 L 0 0 Q 0 0 0 0 Z"/><path fill="none" stroke="rgb(0,0,0)" d="M 0 0 M 0 0 L 140 0 Q 140 0 140 0 L 140 42 Q 140 42 140 42 L 0 42 Q 0 42 0 42 L 0 0 Q 0 0 0 0 Z" stroke-opacity="0" stroke-miterlimit="10" stroke-width="2" opacity="0.294117647"/></g></g></g></g></g><g><g transform="translate(0,0) scale(1.4,0.42)"><g><path fill="#FFFFFF" stroke="none" d="M 0 0 L 100 0 Q 100 0 100 0 L 100 100 Q 100 100 100 100 L 0 100 Q 0 100 0 100 L 0 0 Q 0 0 0 0 Z"/><g transform="scale(0.7142857142857143,2.380952380952381)"><path fill="none" stroke="none" d="M 0 0 L 140 0 Q 140 0 140 0 L 140 42 Q 140 42 140 42 L 0 42 Q 0 42 0 42 L 0 0 Q 0 0 0 0 Z"/><path fill="none" stroke="#000000" d="M 0 0 M 0 0 L 140 0 Q 140 0 140 0 L 140 42 Q 140 42 140 42 L 0 42 Q 0 42 0 42 L 0 0 Q 0 0 0 0 Z" stroke-miterlimit="10" stroke-width="2"/></g></g></g></g></g><g transform="matrix(1,0,0,1,803,570)"><g><g><rect fill="rgb(0,0,0)" stroke="none" x="0" y="0" width="125" height="29" fill-opacity="0"/></g></g><g><g><rect fill="rgb(0,0,0)" stroke="none" x="0" y="0" width="125" height="13" fill-opacity="0"/></g></g><g><g><rect fill="rgb(0,0,0)" stroke="none" x="0" y="0" width="41" height="13" fill-opacity="0"/></g><text fill="rgb(0, 0, 0)" stroke="none" font-family="Arial" font-size="12px" font-style="normal" font-weight="normal" text-decoration="" line-height="14px" x="0" y="12">Method</text></g></g><g transform="translate(0,0) matrix(1,0,0,1,1179,503.6666564941406)"><g transform="translate(4,4) scale(1.0071428571428571,1.0344827586206897)"><g><g transform="translate(0,0) scale(1.4,0.29)"><g><path fill="#000000" stroke="none" d="M 0 0 L 100 0 Q 100 0 100 0 L 100 100 Q 100 100 100 100 L 0 100 Q 0 100 0 100 L 0 0 Q 0 0 0 0 Z" opacity="0.294117647"/><g transform="scale(0.7142857142857143,3.4482758620689657)"><path fill="none" stroke="none" d="M 0 0 L 140 0 Q 140 0 140 0 L 140 28.999999999999996 Q 140 28.999999999999996 140 28.999999999999996 L 0 28.999999999999996 Q 0 28.999999999999996 0 28.999999999999996 L 0 0 Q 0 0 0 0 Z"/><path fill="none" stroke="rgb(0,0,0)" d="M 0 0 M 0 0 L 140 0 Q 140 0 140 0 L 140 28.999999999999996 Q 140 28.999999999999996 140 28.999999999999996 L 0 28.999999999999996 Q 0 28.999999999999996 0 28.999999999999996 L 0 0 Q 0 0 0 0 Z" stroke-opacity="0" stroke-miterlimit="10" stroke-width="2" opacity="0.294117647"/></g></g></g></g></g><g><g transform="translate(0,0) scale(1.4,0.29)"><g><path fill="#FFFFFF" stroke="none" d="M 0 0 L 100 0 Q 100 0 100 0 L 100 100 Q 100 100 100 100 L 0 100 Q 0 100 0 100 L 0 0 Q 0 0 0 0 Z"/><g transform="scale(0.7142857142857143,3.4482758620689657)"><path fill="none" stroke="none" d="M 0 0 L 140 0 Q 140 0 140 0 L 140 28.999999999999996 Q 140 28.999999999999996 140 28.999999999999996 L 0 28.999999999999996 Q 0 28.999999999999996 0 28.999999999999996 L 0 0 Q 0 0 0 0 Z"/><path fill="none" stroke="#000000" d="M 0 0 M 0 0 L 140 0 Q 140 0 140 0 L 140 28.999999999999996 Q 140 28.999999999999996 140 28.999999999999996 L 0 28.999999999999996 Q 0 28.999999999999996 0 28.999999999999996 L 0 0 Q 0 0 0 0 Z" stroke-miterlimit="10" stroke-width="2"/></g></g></g></g></g><g transform="matrix(1,0,0,1,1187,512)"><g><g><rect fill="rgb(0,0,0)" stroke="none" x="0" y="0" width="125" height="29" fill-opacity="0"/></g></g><g><g><rect fill="rgb(0,0,0)" stroke="none" x="0" y="0" width="125" height="13" fill-opacity="0"/></g></g><g><g><rect fill="rgb(0,0,0)" stroke="none" x="44.1630859375" y="0" width="37" height="13" fill-opacity="0"/></g><text fill="rgb(0, 0, 0)" stroke="none" font-family="Arial" font-size="12px" font-style="normal" font-weight="bold" text-decoration="" line-height="14px" x="44.1630859375" y="12">Stamp</text></g></g><g transform="translate(0,0) matrix(1,0,0,1,1179,532.6666564941406)"><g transform="translate(4,4) scale(1.0071428571428571,1.0344827586206897)"><g><g transform="translate(0,0) scale(1.4,0.29)"><g><path fill="#000000" stroke="none" d="M 0 0 L 100 0 Q 100 0 100 0 L 100 100 Q 100 100 100 100 L 0 100 Q 0 100 0 100 L 0 0 Q 0 0 0 0 Z" opacity="0.294117647"/><g transform="scale(0.7142857142857143,3.4482758620689657)"><path fill="none" stroke="none" d="M 0 0 L 140 0 Q 140 0 140 0 L 140 28.999999999999996 Q 140 28.999999999999996 140 28.999999999999996 L 0 28.999999999999996 Q 0 28.999999999999996 0 28.999999999999996 L 0 0 Q 0 0 0 0 Z"/><path fill="none" stroke="rgb(0,0,0)" d="M 0 0 M 0 0 L 140 0 Q 140 0 140 0 L 140 28.999999999999996 Q 140 28.999999999999996 140 28.999999999999996 L 0 28.999999999999996 Q 0 28.999999999999996 0 28.999999999999996 L 0 0 Q 0 0 0 0 Z" stroke-opacity="0" stroke-miterlimit="10" stroke-width="2" opacity="0.294117647"/></g></g></g></g></g><g><g transform="translate(0,0) scale(1.4,0.29)"><g><path fill="#FFFFFF" stroke="none" d="M 0 0 L 100 0 Q 100 0 100 0 L 100 100 Q 100 100 100 100 L 0 100 Q 0 100 0 100 L 0 0 Q 0 0 0 0 Z"/><g transform="scale(0.7142857142857143,3.4482758620689657)"><path fill="none" stroke="none" d="M 0 0 L 140 0 Q 140 0 140 0 L 140 28.999999999999996 Q 140 28.999999999999996 140 28.999999999999996 L 0 28.999999999999996 Q 0 28.999999999999996 0 28.999999999999996 L 0 0 Q 0 0 0 0 Z"/><path fill="none" stroke="#000000" d="M 0 0 M 0 0 L 140 0 Q 140 0 140 0 L 140 28.999999999999996 Q 140 28.999999999999996 140 28.999999999999996 L 0 28.999999999999996 Q 0 28.999999999999996 0 28.999999999999996 L 0 0 Q 0 0 0 0 Z" stroke-miterlimit="10" stroke-width="2"/></g></g></g></g></g><g transform="matrix(1,0,0,1,1187,541)"><g><g><rect fill="rgb(0,0,0)" stroke="none" x="0" y="0" width="125" height="29" fill-opacity="0"/></g></g><g><g><rect fill="rgb(0,0,0)" stroke="none" x="0" y="0" width="125" height="13" fill-opacity="0"/></g></g><g><g><rect fill="rgb(0,0,0)" stroke="none" x="0" y="0" width="45" height="13" fill-opacity="0"/></g><text fill="rgb(0, 0, 0)" stroke="none" font-family="Arial" font-size="12px" font-style="normal" font-weight="normal" text-decoration="" line-height="14px" x="0" y="12">Attribute</text></g></g><g transform="translate(0,0) matrix(1,0,0,1,1179,561.6666564941406)"><g transform="translate(4,4) scale(1.0071428571428571,1.0238095238095237)"><g><g transform="translate(0,0) scale(1.4,0.42)"><g><path fill="#000000" stroke="none" d="M 0 0 L 100 0 Q 100 0 100 0 L 100 100 Q 100 100 100 100 L 0 100 Q 0 100 0 100 L 0 0 Q 0 0 0 0 Z" opacity="0.294117647"/><g transform="scale(0.7142857142857143,2.380952380952381)"><path fill="none" stroke="none" d="M 0 0 L 140 0 Q 140 0 140 0 L 140 42 Q 140 42 140 42 L 0 42 Q 0 42 0 42 L 0 0 Q 0 0 0 0 Z"/><path fill="none" stroke="rgb(0,0,0)" d="M 0 0 M 0 0 L 140 0 Q 140 0 140 0 L 140 42 Q 140 42 140 42 L 0 42 Q 0 42 0 42 L 0 0 Q 0 0 0 0 Z" stroke-opacity="0" stroke-miterlimit="10" stroke-width="2" opacity="0.294117647"/></g></g></g></g></g><g><g transform="translate(0,0) scale(1.4,0.42)"><g><path fill="#FFFFFF" stroke="none" d="M 0 0 L 100 0 Q 100 0 100 0 L 100 100 Q 100 100 100 100 L 0 100 Q 0 100 0 100 L 0 0 Q 0 0 0 0 Z"/><g transform="scale(0.7142857142857143,2.380952380952381)"><path fill="none" stroke="none" d="M 0 0 L 140 0 Q 140 0 140 0 L 140 42 Q 140 42 140 42 L 0 42 Q 0 42 0 42 L 0 0 Q 0 0 0 0 Z"/><path fill="none" stroke="#000000" d="M 0 0 M 0 0 L 140 0 Q 140 0 140 0 L 140 42 Q 140 42 140 42 L 0 42 Q 0 42 0 42 L 0 0 Q 0 0 0 0 Z" stroke-miterlimit="10" stroke-width="2"/></g></g></g></g></g><g transform="matrix(1,0,0,1,1187,570)"><g><g><rect fill="rgb(0,0,0)" stroke="none" x="0" y="0" width="125" height="29" fill-opacity="0"/></g></g><g><g><rect fill="rgb(0,0,0)" stroke="none" x="0" y="0" width="125" height="13" fill-opacity="0"/></g></g><g><g><rect fill="rgb(0,0,0)" stroke="none" x="0" y="0" width="41" height="13" fill-opacity="0"/></g><text fill="rgb(0, 0, 0)" stroke="none" font-family="Arial" font-size="12px" font-style="normal" font-weight="normal" text-decoration="" line-height="14px" x="0" y="12">Method</text></g></g><g transform="matrix(1,0,0,1,406,599.6666564941406)"><g transform="translate(0,0)"><g transform="translate(-597,-680.6666564941406) translate(191,81) matrix(1,0,0,1,0,0)"><g><path fill="none" stroke="#000000" d="M 410 603.6666564941406 L 410 791.6666564941406 L 795 791.6666564941406" stroke-miterlimit="10"/></g></g></g></g><g transform="matrix(1,0,0,1,774,770)"><g><path fill="none" stroke="none" d="M 0 0 L 13 0 L 13 13 L 0 13 Z"/><g><rect fill="rgb(255, 255, 255)" stroke="none" x="0" y="0" width="13" height="13"/></g></g><g><path fill="none" stroke="none" d="M 0 0 L 13 0 L 13 13 L 0 13 Z"/><g><rect fill="rgb(0,0,0)" stroke="none" x="0" y="0" width="13" height="13" fill-opacity="0"/></g></g><g><path fill="none" stroke="none" d="M 3.1630859375 0 L 11.1630859375 0 L 11.1630859375 13 L 3.1630859375 13 Z"/><g><rect fill="rgb(0,0,0)" stroke="none" x="3.1630859375" y="0" width="8" height="13" fill-opacity="0"/></g><text fill="rgb(0, 0, 0)" stroke="none" font-family="Arial" font-size="12px" font-style="normal" font-weight="normal" text-decoration="" line-height="14px" x="3.1630859375" y="12">1</text></g></g><g transform="matrix(1,0,0,1,383,612)"><g><path fill="none" stroke="none" d="M 0 0 L 25 0 L 25 13 L 0 13 Z"/><g><rect fill="rgb(255, 255, 255)" stroke="none" x="0" y="0" width="25" height="13"/></g></g><g><path fill="none" stroke="none" d="M 0 0 L 25 0 L 25 13 L 0 13 Z"/><g><rect fill="rgb(0,0,0)" stroke="none" x="0" y="0" width="25" height="13" fill-opacity="0"/></g></g><g><path fill="none" stroke="none" d="M 3.494140625 0 L 23.494140625 0 L 23.494140625 13 L 3.494140625 13 Z"/><g><rect fill="rgb(0,0,0)" stroke="none" x="3.494140625" y="0" width="20" height="13" fill-opacity="0"/></g><text fill="rgb(0, 0, 0)" stroke="none" font-family="Arial" font-size="12px" font-style="normal" font-weight="normal" text-decoration="" line-height="14px" x="2.6666667461395264" y="12">0</text><text fill="rgb(0, 0, 0)" stroke="none" font-family="Arial" font-size="12px" font-style="normal" font-weight="normal" text-decoration="" line-height="14px" x="9.333333969116211" y="12">..*</text></g></g><g transform="matrix(1,0,0,1,861,599.6666564941406)"><g transform="translate(0,0)"><g transform="translate(-832,-679.6666564941406) translate(-29,80) matrix(1,0,0,1,0,0)"><g><path fill="none" stroke="#000000" d="M 865 603.6666564941406 L 865 649.6666564941406 L 865 695.6666564941406 L 865 741.6666564941406" stroke-miterlimit="10"/></g></g></g></g><g transform="matrix(1,0,0,1,838,612)"><g><path fill="none" stroke="none" d="M 0 0 L 25 0 L 25 13 L 0 13 Z"/><g><rect fill="rgb(255, 255, 255)" stroke="none" x="0" y="0" width="25" height="13"/></g></g><g><path fill="none" stroke="none" d="M 0 0 L 25 0 L 25 13 L 0 13 Z"/><g><rect fill="rgb(0,0,0)" stroke="none" x="0" y="0" width="25" height="13" fill-opacity="0"/></g></g><g><path fill="none" stroke="none" d="M 3.494140625 0 L 23.494140625 0 L 23.494140625 13 L 3.494140625 13 Z"/><g><rect fill="rgb(0,0,0)" stroke="none" x="3.494140625" y="0" width="20" height="13" fill-opacity="0"/></g><text fill="rgb(0, 0, 0)" stroke="none" font-family="Arial" font-size="12px" font-style="normal" font-weight="normal" text-decoration="" line-height="14px" x="2.6666667461395264" y="12">0</text><text fill="rgb(0, 0, 0)" stroke="none" font-family="Arial" font-size="12px" font-style="normal" font-weight="normal" text-decoration="" line-height="14px" x="9.333333969116211" y="12">..*</text></g></g><g transform="matrix(1,0,0,1,844,720)"><g><path fill="none" stroke="none" d="M 0 0 L 13 0 L 13 13 L 0 13 Z"/><g><rect fill="rgb(255, 255, 255)" stroke="none" x="0" y="0" width="13" height="13"/></g></g><g><path fill="none" stroke="none" d="M 0 0 L 13 0 L 13 13 L 0 13 Z"/><g><rect fill="rgb(0,0,0)" stroke="none" x="0" y="0" width="13" height="13" fill-opacity="0"/></g></g><g><path fill="none" stroke="none" d="M 3.1630859375 0 L 11.1630859375 0 L 11.1630859375 13 L 3.1630859375 13 Z"/><g><rect fill="rgb(0,0,0)" stroke="none" x="3.1630859375" y="0" width="8" height="13" fill-opacity="0"/></g><text fill="rgb(0, 0, 0)" stroke="none" font-family="Arial" font-size="12px" font-style="normal" font-weight="normal" text-decoration="" line-height="14px" x="3.1630859375" y="12">1</text></g></g><g transform="matrix(1,0,0,1,861,323.6666564941406)"><g transform="translate(0,0)"><g transform="translate(-852,-408.6666564941406) translate(-9,85) matrix(1,0,0,1,0,0)"><g><path fill="none" stroke="#000000" d="M 865 327.6666564941406 L 865 386.3333231608073 L 865 444.99998982747394 L 865 503.6666564941406" stroke-miterlimit="10"/></g></g></g></g><g transform="matrix(1,0,0,1,838,482)"><g><path fill="none" stroke="none" d="M 0 0 L 25 0 L 25 13 L 0 13 Z"/><g><rect fill="rgb(255, 255, 255)" stroke="none" x="0" y="0" width="25" height="13"/></g></g><g><path fill="none" stroke="none" d="M 0 0 L 25 0 L 25 13 L 0 13 Z"/><g><rect fill="rgb(0,0,0)" stroke="none" x="0" y="0" width="25" height="13" fill-opacity="0"/></g></g><g><path fill="none" stroke="none" d="M 3.494140625 0 L 23.494140625 0 L 23.494140625 13 L 3.494140625 13 Z"/><g><rect fill="rgb(0,0,0)" stroke="none" x="3.494140625" y="0" width="20" height="13" fill-opacity="0"/></g><text fill="rgb(0, 0, 0)" stroke="none" font-family="Arial" font-size="12px" font-style="normal" font-weight="normal" text-decoration="" line-height="14px" x="2.6666667461395264" y="12">0</text><text fill="rgb(0, 0, 0)" stroke="none" font-family="Arial" font-size="12px" font-style="normal" font-weight="normal" text-decoration="" line-height="14px" x="9.333333969116211" y="12">..*</text></g></g><g transform="matrix(1,0,0,1,844,336)"><g><path fill="none" stroke="none" d="M 0 0 L 13 0 L 13 13 L 0 13 Z"/><g><rect fill="rgb(255, 255, 255)" stroke="none" x="0" y="0" width="13" height="13"/></g></g><g><path fill="none" stroke="none" d="M 0 0 L 13 0 L 13 13 L 0 13 Z"/><g><rect fill="rgb(0,0,0)" stroke="none" x="0" y="0" width="13" height="13" fill-opacity="0"/></g></g><g><path fill="none" stroke="none" d="M 3.1630859375 0 L 11.1630859375 0 L 11.1630859375 13 L 3.1630859375 13 Z"/><g><rect fill="rgb(0,0,0)" stroke="none" x="3.1630859375" y="0" width="8" height="13" fill-opacity="0"/></g><text fill="rgb(0, 0, 0)" stroke="none" font-family="Arial" font-size="12px" font-style="normal" font-weight="normal" text-decoration="" line-height="14px" x="3.1630859375" y="12">1</text></g></g><g transform="matrix(1,0,0,1,513,273.6666564941406)"><g transform="translate(0,0)"><g transform="translate(-663,-284.6666564941406) translate(150,11) matrix(1,0,0,1,0,0)"><g><path fill="none" stroke="#000000" d="M 517 277.6666564941406 L 609.6666666666666 277.6666564941406 L 702.3333333333334 277.6666564941406 L 795 277.6666564941406" stroke-miterlimit="10"/></g></g></g></g><g transform="matrix(1,0,0,1,526,256)"><g><path fill="none" stroke="none" d="M 0 0 L 13 0 L 13 13 L 0 13 Z"/><g><rect fill="rgb(255, 255, 255)" stroke="none" x="0" y="0" width="13" height="13"/></g></g><g><path fill="none" stroke="none" d="M 0 0 L 13 0 L 13 13 L 0 13 Z"/><g><rect fill="rgb(0,0,0)" stroke="none" x="0" y="0" width="13" height="13" fill-opacity="0"/></g></g><g><path fill="none" stroke="none" d="M 3.1630859375 0 L 11.1630859375 0 L 11.1630859375 13 L 3.1630859375 13 Z"/><g><rect fill="rgb(0,0,0)" stroke="none" x="3.1630859375" y="0" width="8" height="13" fill-opacity="0"/></g><text fill="rgb(0, 0, 0)" stroke="none" font-family="Arial" font-size="12px" font-style="normal" font-weight="normal" text-decoration="" line-height="14px" x="3.1630859375" y="12">1</text></g></g><g transform="matrix(1,0,0,1,768,256)"><g><path fill="none" stroke="none" d="M 0 0 L 25 0 L 25 13 L 0 13 Z"/><g><rect fill="rgb(255, 255, 255)" stroke="none" x="0" y="0" width="25" height="13"/></g></g><g><path fill="none" stroke="none" d="M 0 0 L 25 0 L 25 13 L 0 13 Z"/><g><rect fill="rgb(0,0,0)" stroke="none" x="0" y="0" width="25" height="13" fill-opacity="0"/></g></g><g><path fill="none" stroke="none" d="M 3.494140625 0 L 23.494140625 0 L 23.494140625 13 L 3.494140625 13 Z"/><g><rect fill="rgb(0,0,0)" stroke="none" x="3.494140625" y="0" width="20" height="13" fill-opacity="0"/></g><text fill="rgb(0, 0, 0)" stroke="none" font-family="Arial" font-size="12px" font-style="normal" font-weight="normal" text-decoration="" line-height="14px" x="2.6666667461395264" y="12">0</text><text fill="rgb(0, 0, 0)" stroke="none" font-family="Arial" font-size="12px" font-style="normal" font-weight="normal" text-decoration="" line-height="14px" x="9.333333969116211" y="12">..*</text></g></g><g transform="matrix(1,0,0,1,931,273.6666564941406)"><g transform="translate(0,0)"><g transform="translate(-978,-282.6666564941406) translate(47,9) matrix(1,0,0,1,0,0)"><g><path fill="none" stroke="#000000" d="M 935 277.6666564941406 L 1249 277.6666564941406 L 1249 503.6666564941406" stroke-miterlimit="10"/></g></g></g></g><g transform="matrix(1,0,0,1,1222,482)"><g><path fill="none" stroke="none" d="M 0 0 L 25 0 L 25 13 L 0 13 Z"/><g><rect fill="rgb(255, 255, 255)" stroke="none" x="0" y="0" width="25" height="13"/></g></g><g><path fill="none" stroke="none" d="M 0 0 L 25 0 L 25 13 L 0 13 Z"/><g><rect fill="rgb(0,0,0)" stroke="none" x="0" y="0" width="25" height="13" fill-opacity="0"/></g></g><g><path fill="none" stroke="none" d="M 3.494140625 0 L 23.494140625 0 L 23.494140625 13 L 3.494140625 13 Z"/><g><rect fill="rgb(0,0,0)" stroke="none" x="3.494140625" y="0" width="20" height="13" fill-opacity="0"/></g><text fill="rgb(0, 0, 0)" stroke="none" font-family="Arial" font-size="12px" font-style="normal" font-weight="normal" text-decoration="" line-height="14px" x="2.6666667461395264" y="12">0</text><text fill="rgb(0, 0, 0)" stroke="none" font-family="Arial" font-size="12px" font-style="normal" font-weight="normal" text-decoration="" line-height="14px" x="9.333333969116211" y="12">..*</text></g></g><g transform="matrix(1,0,0,1,944,256)"><g><path fill="none" stroke="none" d="M 0 0 L 13 0 L 13 13 L 0 13 Z"/><g><rect fill="rgb(255, 255, 255)" stroke="none" x="0" y="0" width="13" height="13"/></g></g><g><path fill="none" stroke="none" d="M 0 0 L 13 0 L 13 13 L 0 13 Z"/><g><rect fill="rgb(0,0,0)" stroke="none" x="0" y="0" width="13" height="13" fill-opacity="0"/></g></g><g><path fill="none" stroke="none" d="M 3.1630859375 0 L 11.1630859375 0 L 11.1630859375 13 L 3.1630859375 13 Z"/><g><rect fill="rgb(0,0,0)" stroke="none" x="3.1630859375" y="0" width="8" height="13" fill-opacity="0"/></g><text fill="rgb(0, 0, 0)" stroke="none" font-family="Arial" font-size="12px" font-style="normal" font-weight="normal" text-decoration="" line-height="14px" x="3.1630859375" y="12">1</text></g></g><g transform="matrix(1,0,0,1,931,599.6666564941406)"><g transform="translate(0,0)"><g transform="translate(-1120,-556.6666564941406) translate(189,-43) matrix(1,0,0,1,0,0)"><g><path fill="none" stroke="#000000" d="M 935 791.6666564941406 L 1249 791.6666564941406 L 1249 603.6666564941406" stroke-miterlimit="10"/></g></g></g></g><g transform="matrix(1,0,0,1,944,770)"><g><path fill="none" stroke="none" d="M 0 0 L 13 0 L 13 13 L 0 13 Z"/><g><rect fill="rgb(255, 255, 255)" stroke="none" x="0" y="0" width="13" height="13"/></g></g><g><path fill="none" stroke="none" d="M 0 0 L 13 0 L 13 13 L 0 13 Z"/><g><rect fill="rgb(0,0,0)" stroke="none" x="0" y="0" width="13" height="13" fill-opacity="0"/></g></g><g><path fill="none" stroke="none" d="M 3.1630859375 0 L 11.1630859375 0 L 11.1630859375 13 L 3.1630859375 13 Z"/><g><rect fill="rgb(0,0,0)" stroke="none" x="3.1630859375" y="0" width="8" height="13" fill-opacity="0"/></g><text fill="rgb(0, 0, 0)" stroke="none" font-family="Arial" font-size="12px" font-style="normal" font-weight="normal" text-decoration="" line-height="14px" x="3.1630859375" y="12">1</text></g></g><g transform="matrix(1,0,0,1,1228,612)"><g><path fill="none" stroke="none" d="M 0 0 L 13 0 L 13 13 L 0 13 Z"/><g><rect fill="rgb(255, 255, 255)" stroke="none" x="0" y="0" width="13" height="13"/></g></g><g><path fill="none" stroke="none" d="M 0 0 L 13 0 L 13 13 L 0 13 Z"/><g><rect fill="rgb(0,0,0)" stroke="none" x="0" y="0" width="13" height="13" fill-opacity="0"/></g></g><g><path fill="none" stroke="none" d="M 3.1630859375 0 L 11.1630859375 0 L 11.1630859375 13 L 3.1630859375 13 Z"/><g><rect fill="rgb(0,0,0)" stroke="none" x="3.1630859375" y="0" width="8" height="13" fill-opacity="0"/></g><text fill="rgb(0, 0, 0)" stroke="none" font-family="Arial" font-size="12px" font-style="normal" font-weight="normal" text-decoration="" line-height="14px" x="3.1630859375" y="12">0</text></g></g><g transform="matrix(1,0,0,1,476,584.6666564941406)"><g transform="translate(0,0)"><g transform="translate(-647,-633.6666564941406) translate(171,49) matrix(1,0,0,1,0,0)"><g><path fill="none" stroke="#000000" d="M 480 588.6666564941406 L 585.0021163807875 588.6666564941406 L 690.004232761575 588.6666564941406 L 795.0063491423625 588.6666564941406" stroke-miterlimit="10"/></g></g></g></g><g transform="matrix(1,0,0,1,489,567)"><g><path fill="none" stroke="none" d="M 0 0 L 13 0 L 13 13 L 0 13 Z"/><g><rect fill="rgb(255, 255, 255)" stroke="none" x="0" y="0" width="13" height="13"/></g></g><g><path fill="none" stroke="none" d="M 0 0 L 13 0 L 13 13 L 0 13 Z"/><g><rect fill="rgb(0,0,0)" stroke="none" x="0" y="0" width="13" height="13" fill-opacity="0"/></g></g><g><path fill="none" stroke="none" d="M 3.1630859375 0 L 11.1630859375 0 L 11.1630859375 13 L 3.1630859375 13 Z"/><g><rect fill="rgb(0,0,0)" stroke="none" x="3.1630859375" y="0" width="8" height="13" fill-opacity="0"/></g><text fill="rgb(0, 0, 0)" stroke="none" font-family="Arial" font-size="12px" font-style="normal" font-weight="normal" text-decoration="" line-height="14px" x="3.1630859375" y="12">1</text></g></g><g transform="matrix(1,0,0,1,768,567)"><g><path fill="none" stroke="none" d="M 0 0 L 25 0 L 25 13 L 0 13 Z"/><g><rect fill="rgb(255, 255, 255)" stroke="none" x="0" y="0" width="25" height="13"/></g></g><g><path fill="none" stroke="none" d="M 0 0 L 25 0 L 25 13 L 0 13 Z"/><g><rect fill="rgb(0,0,0)" stroke="none" x="0" y="0" width="25" height="13" fill-opacity="0"/></g></g><g><path fill="none" stroke="none" d="M 3.494140625 0 L 23.494140625 0 L 23.494140625 13 L 3.494140625 13 Z"/><g><rect fill="rgb(0,0,0)" stroke="none" x="3.494140625" y="0" width="20" height="13" fill-opacity="0"/></g><text fill="rgb(0, 0, 0)" stroke="none" font-family="Arial" font-size="12px" font-style="normal" font-weight="normal" text-decoration="" line-height="14px" x="2.6666667461395264" y="12">0</text><text fill="rgb(0, 0, 0)" stroke="none" font-family="Arial" font-size="12px" font-style="normal" font-weight="normal" text-decoration="" line-height="14px" x="9.333333969116211" y="12">..*</text></g></g><g transform="matrix(1,0,0,1,931,549.6666564941406)"><g transform="translate(0,0)"><g transform="translate(-1004,-554.6666564941406) translate(73,5) matrix(1,0,0,1,0,0)"><g><path fill="none" stroke="#000000" d="M 935 553.6666564941406 L 1016.3333333333334 553.6666564941406 L 1097.6666666666667 553.6666564941406 L 1179 553.6666564941406" stroke-miterlimit="10"/></g></g></g></g><g transform="matrix(1,0,0,1,944,532)"><g><path fill="none" stroke="none" d="M 0 0 L 13 0 L 13 13 L 0 13 Z"/><g><rect fill="rgb(255, 255, 255)" stroke="none" x="0" y="0" width="13" height="13"/></g></g><g><path fill="none" stroke="none" d="M 0 0 L 13 0 L 13 13 L 0 13 Z"/><g><rect fill="rgb(0,0,0)" stroke="none" x="0" y="0" width="13" height="13" fill-opacity="0"/></g></g><g><path fill="none" stroke="none" d="M 3.1630859375 0 L 11.1630859375 0 L 11.1630859375 13 L 3.1630859375 13 Z"/><g><rect fill="rgb(0,0,0)" stroke="none" x="3.1630859375" y="0" width="8" height="13" fill-opacity="0"/></g><text fill="rgb(0, 0, 0)" stroke="none" font-family="Arial" font-size="12px" font-style="normal" font-weight="normal" text-decoration="" line-height="14px" x="3.1630859375" y="12">1</text></g></g><g transform="matrix(1,0,0,1,628,464.6666564941406)"><g transform="translate(0,0)"><g transform="translate(-624,-527.6666564941406) translate(-4,63) matrix(1,0,0,1,0,0)"><g><path fill="none" stroke="#000000" d="M 632 468.6666564941406 L 632 534.6666564941406 L 795 534.6666564941406" stroke-miterlimit="10"/></g></g></g></g><g transform="matrix(1,0,0,1,611,477)"><g><path fill="none" stroke="none" d="M 0 0 L 13 0 L 13 13 L 0 13 Z"/><g><rect fill="rgb(255, 255, 255)" stroke="none" x="0" y="0" width="13" height="13"/></g></g><g><path fill="none" stroke="none" d="M 0 0 L 13 0 L 13 13 L 0 13 Z"/><g><rect fill="rgb(0,0,0)" stroke="none" x="0" y="0" width="13" height="13" fill-opacity="0"/></g></g><g><path fill="none" stroke="none" d="M 3.1630859375 0 L 11.1630859375 0 L 11.1630859375 13 L 3.1630859375 13 Z"/><g><rect fill="rgb(0,0,0)" stroke="none" x="3.1630859375" y="0" width="8" height="13" fill-opacity="0"/></g><text fill="rgb(0, 0, 0)" stroke="none" font-family="Arial" font-size="12px" font-style="normal" font-weight="normal" text-decoration="" line-height="14px" x="3.1630859375" y="12">1</text></g></g></g></svg>